<svg width="80" height="80" viewBox="0 0 80 80" fill="none" xmlns="http://www.w3.org/2000/svg">
<path d="M59.1667 6.66667L60.8334 5L62.5 6.66667L60.8334 8.33333L59.1667 6.66667Z" fill="#E6E8EA"/>
<path d="M3.33331 65L5.83331 62.5L8.33331 65L5.83331 67.5L3.33331 65Z" fill="#E6E8EA"/>
<path d="M73.3333 57.0834L74.5833 55.8334L75.8333 57.0834L74.5833 58.3334L73.3333 57.0834Z" fill="#E6E8EA"/>
<path d="M67.5 55.1173V67.5H55.1171L49.8247 76.6667L40 70.9945L30.1753 76.6667L24.8829 67.5H12.5V55.1172L3.33331 49.8249L9.00576 40L3.33349 30.1752L12.5 24.8829V12.5H24.8827L30.1751 3.33337L40 9.00558L49.8248 3.33337L55.1172 12.5H67.5V24.8828L76.6665 30.1752L70.9942 40L76.6666 49.8249L67.5 55.1173Z" fill="#E6E8EA"/>
<path d="M62.5 52.3687V62.5H52.3685L48.0384 70L40 65.3591L31.9616 70L27.6315 62.5H17.5V52.3686L10 48.0385L14.6411 40L10.0001 31.9615L17.5 27.6314V17.5H27.6314L31.9615 10L40 14.6409L48.0385 10L52.3687 17.5H62.5V27.6313L69.9999 31.9615L65.3589 40L70 48.0385L62.5 52.3687Z" fill="url(#paint0_linear_10510_94819)"/>
<path d="M33.0793 55.3071L52.2103 24.693H46.9207L27.7897 55.3071H33.0793ZM29.7292 41.5351C34.4018 41.5351 36.9584 38.9913 36.9584 32.8509C36.9584 26.7106 34.4018 24.1667 29.7292 24.1667C25.0567 24.1667 22.5 26.7106 22.5 32.8509C22.5 38.9913 25.0567 41.5351 29.7292 41.5351ZM29.7292 38.0264C28.3627 38.0264 27.7456 37.1492 27.7456 35.3948V30.3071C27.7456 28.5527 28.3627 27.6755 29.7292 27.6755C31.0957 27.6755 31.7128 28.5527 31.7128 30.3071V35.3948C31.7128 37.1492 31.0957 38.0264 29.7292 38.0264ZM50.2708 55.8334C54.9433 55.8334 57.5 53.2895 57.5 47.1492C57.5 41.0088 54.9433 38.465 50.2708 38.465C45.5982 38.465 43.0416 41.0088 43.0416 47.1492C43.0416 53.2895 45.5982 55.8334 50.2708 55.8334ZM50.2708 52.3246C48.9043 52.3246 48.2872 51.4474 48.2872 49.693V44.6053C48.2872 42.8509 48.9043 41.9737 50.2708 41.9737C51.6373 41.9737 52.2544 42.8509 52.2544 44.6053V49.693C52.2544 51.4474 51.6373 52.3246 50.2708 52.3246Z" fill="url(#paint1_linear_10510_94819)"/>
<defs>
<linearGradient id="paint0_linear_10510_94819" x1="40" y1="10" x2="40" y2="70" gradientUnits="userSpaceOnUse">
<stop stop-color="#929AA5"/>
<stop offset="1" stop-color="#76808F"/>
</linearGradient>
<linearGradient id="paint1_linear_10510_94819" x1="40" y1="55.8334" x2="40" y2="24.1667" gradientUnits="userSpaceOnUse">
<stop stop-color="#F0B90B"/>
<stop offset="1" stop-color="#F8D33A"/>
</linearGradient>
</defs>
</svg>
