<svg width="18" height="18" fill="none" xmlns="http://www.w3.org/2000/svg"><path d="M13.524 3.327a6.128 6.128 0 010 8.665l.542.542a6.894 6.894 0 10-9.75 0l.543-.542a6.128 6.128 0 118.665-8.665z" fill="url(#paint0_linear)"/><path d="M4.213 18l4.978-4.979-3.83-3.83-4.978 4.98h3.83V18z" fill="url(#paint1_linear)"/><path d="M4.213 18v-3.83l3.064-3.064 1.914 1.915L4.213 18z" fill="#76808F"/><path d="M0 1.149l1.149 1.149 1.149-1.15L1.148 0 0 1.149zM15.894 3.83l.766.766.766-.766-.766-.766-.766.766zm1.531 6.127H18v-.574h-.575v.574z" fill="#E6E8EA"/><path d="M14.17 18l-4.979-4.979 3.83-3.83L18 14.172h-3.83V18z" fill="url(#paint2_linear)"/><path d="M14.17 18v-3.83l-3.064-3.064-1.915 1.915L14.171 18z" fill="#76808F"/><path fill-rule="evenodd" clip-rule="evenodd" d="M9.192 2.298a5.362 5.362 0 110 10.723 5.362 5.362 0 010-10.723zm0 7.66L6.894 7.66l2.298-2.298 2.297 2.298-2.297 2.297z" fill="url(#paint3_linear)"/><defs><linearGradient id="paint0_linear" x1="9.191" y1=".766" x2="9.191" y2="17.409" gradientUnits="userSpaceOnUse"><stop stop-color="#FAFAFA"/><stop offset="1" stop-color="#E6E8EA"/></linearGradient><linearGradient id="paint1_linear" x1="4.787" y1="9.192" x2="4.787" y2="18" gradientUnits="userSpaceOnUse"><stop stop-color="#929AA5"/><stop offset="1" stop-color="#76808F"/></linearGradient><linearGradient id="paint2_linear" x1="13.596" y1="9.192" x2="13.596" y2="18" gradientUnits="userSpaceOnUse"><stop stop-color="#929AA5"/><stop offset="1" stop-color="#76808F"/></linearGradient><linearGradient id="paint3_linear" x1="9.192" y1="13.021" x2="9.192" y2="2.298" gradientUnits="userSpaceOnUse"><stop stop-color="#F0B90B"/><stop offset="1" stop-color="#F8D33A"/></linearGradient></defs></svg>