<svg width="792" height="128" fill="none" xmlns="http://www.w3.org/2000/svg"><rect width="792" height="128" rx="8" fill="url(#paint0_linear)"/><path d="M-6.5 135V-2.5h298L144 150.5-6.5 135z" fill="url(#paint1_linear)"/><path d="M21.31 62.068L-2.846 86.223-27 62.068l24.155-24.155 24.154 24.155zM80.067 3.309l41.389 41.39 24.154-24.156L80.068-45l-65.68 65.543 24.155 24.155L80.068 3.31zm82.777 34.604L138.69 62.068l24.154 24.155L187 62.068l-24.155-24.155zm-82.777 82.778l-41.525-41.39-24.154 24.156L79.932 169l65.544-65.543-24.155-24.155-41.253 41.389zm0-34.468l24.155-24.155-24.155-24.155-24.155 24.155 24.155 24.155z" fill="url(#paint2_linear)"/><path d="M103.225 127.096l-13.041 13.041 8.534 8.534 13.041-13.041-8.534-8.534z" fill="#E8A37D"/><path fill-rule="evenodd" clip-rule="evenodd" d="M146.154 76.504l12.39 12.41-46.786 46.716-12.39-12.409 46.786-46.717z" fill="#fff"/><path fill-rule="evenodd" clip-rule="evenodd" d="M136.742 85.846l12.4 12.4-37.38 37.38-12.4-12.4 37.38-37.38z" fill="url(#paint3_linear)" opacity=".6"/><path fill-rule="evenodd" clip-rule="evenodd" d="M226.33 27.015l-37.38 37.38-10.442-10.443 37.38-37.38 10.442 10.443z" fill="#474D57"/><path fill-rule="evenodd" clip-rule="evenodd" d="M226.33 27.015l-37.38 37.38-10.442-10.443 37.38-37.38 10.442 10.443z" fill="url(#paint4_linear)" opacity=".6"/><path d="M62 113.468l25.23-25.231c6.766-6.586 15.942-10.286 25.509-10.286l24.965-.023-25.254 25.254c-6.765 6.586-15.941 10.286-25.509 10.286H62z" fill="#E56700"/><path d="M62 113.468l25.23-25.231c6.766-6.586 15.942-10.286 25.509-10.286l24.965-.023-25.254 25.254c-6.765 6.586-15.941 10.286-25.509 10.286H62z" fill="url(#paint5_linear)" opacity=".6"/><path d="M131.703 80.235l-14.768 14.746c-3.96 3.85-9.33 6.011-14.93 6.011l-14.612.014 14.781-14.76c3.96-3.848 9.33-6.01 14.93-6.01h14.599z" fill="#FF7E0D"/><path d="M131.703 80.235l-14.768 14.746c-3.96 3.85-9.33 6.011-14.93 6.011l-14.612.014 14.781-14.76c3.96-3.848 9.33-6.01 14.93-6.01h14.599z" fill="url(#paint6_linear)" opacity=".6"/><path d="M142.189 80.756L123.912 62.48l26.241-26.24h21.214l7.67 7.67-36.848 36.847z" fill="#2B2F36"/><path d="M223.555 17.924h12.923V5h-12.923v12.924z" fill="#E8A37D"/><path d="M236.479 5h-12.924v12.924h12.924V5z" fill="url(#paint7_linear)" opacity=".6"/><path d="M187.363 73.46c5.882-5.882 5.882-15.419 0-21.3l-8.47-8.47-32.838 32.838 19.12 19.12 22.188-22.188z" fill="#474D57"/><path d="M201.307 25.173c4.506 4.505 4.36 11.956-.326 16.642s-12.137 4.832-16.642.326l16.968-16.968z" fill="#E8A37D"/><path d="M201.307 25.173c4.506 4.505 4.36 11.956-.326 16.642s-12.137 4.832-16.642.326l16.968-16.968z" fill="url(#paint8_linear)" opacity=".6"/><path d="M201.308 25.173c-4.866-4.866-12.609-5.012-17.294-.326-4.686 4.685-4.54 12.428.326 17.294l16.968-16.968z" fill="#14151A"/><path d="M156.735 117.215v17.068l13.683-13.684-8.533-8.534-5.15 5.15z" fill="#E8A37D"/><path d="M144.46 117.185v29.196l12.276-12.102v-17.094H144.46z" fill="#2B2F36"/><path d="M118.733 74.186l8.442-8.443 11.399 11.313-8.486 8.486-11.355-11.356z" fill="url(#paint9_linear)"/><path fill-rule="evenodd" clip-rule="evenodd" d="M145.669 68.882c-9.303-9.303-2.714-25.21 10.442-25.21h22.784V58.44h-22.784l11.162 11.16-10.443 10.443-11.161-11.161z" fill="#474D57"/><path fill-rule="evenodd" clip-rule="evenodd" d="M145.669 68.882c-9.303-9.303-2.714-25.21 10.442-25.21h22.784V58.44h-22.784l11.162 11.16-10.443 10.443-11.161-11.161z" fill="url(#paint10_linear)" opacity=".6"/><path fill-rule="evenodd" clip-rule="evenodd" d="M179.615 85.709c12.334 0 18.51 14.912 9.789 23.633l-20.05 20.05-12.4-12.4 13.748-13.747h-16.278c-9.685 0-17.536-7.852-17.536-17.537l17.529.001h-.004.009l-.001-.003-.002-.003.005.006h25.191z" fill="#fff"/><path d="M165.398 77.926V90.85h12.924V77.926h-12.924z" fill="#E8A37D"/><path d="M165.398 77.926V90.85h12.924V77.926h-12.924z" fill="url(#paint11_linear)" opacity=".6"/><defs><linearGradient id="paint0_linear" x1="117.5" y1="166.5" x2="284" y2="0" gradientUnits="userSpaceOnUse"><stop stop-color="#1E2329"/><stop offset="1" stop-color="#2B3139"/></linearGradient><linearGradient id="paint1_linear" x1="281.5" y1="4.5" x2="-25.799" y2="134.974" gradientUnits="userSpaceOnUse"><stop stop-color="#76808E" stop-opacity="0"/><stop offset="1" stop-color="#76808E" stop-opacity=".39"/></linearGradient><linearGradient id="paint2_linear" x1="80" y1="-45" x2="80" y2="169" gradientUnits="userSpaceOnUse"><stop stop-color="#fff" stop-opacity=".75"/><stop offset="1" stop-color="#fff" stop-opacity="0"/><stop offset="1" stop-color="#fff" stop-opacity="0"/></linearGradient><linearGradient id="paint3_linear" x1="134.906" y1="100.083" x2="116.119" y2="118.869" gradientUnits="userSpaceOnUse"><stop/><stop offset="1" stop-opacity="0"/></linearGradient><linearGradient id="paint4_linear" x1="191.343" y1="62.634" x2="226.646" y2="27.331" gradientUnits="userSpaceOnUse"><stop stop-opacity=".65"/><stop offset="1" stop-opacity="0"/></linearGradient><linearGradient id="paint5_linear" x1="110.649" y1="102.67" x2="103.774" y2="109.545" gradientUnits="userSpaceOnUse"><stop/><stop offset="1" stop-opacity="0"/></linearGradient><linearGradient id="paint6_linear" x1="125.323" y1="80.236" x2="111.423" y2="94.135" gradientUnits="userSpaceOnUse"><stop/><stop offset="1" stop-opacity="0"/></linearGradient><linearGradient id="paint7_linear" x1="223.555" y1="17.924" x2="236.478" y2="5" gradientUnits="userSpaceOnUse"><stop/><stop offset="1" stop-opacity="0"/></linearGradient><linearGradient id="paint8_linear" x1="183.393" y1="48.918" x2="203.769" y2="28.542" gradientUnits="userSpaceOnUse"><stop/><stop offset="1" stop-opacity="0"/></linearGradient><linearGradient id="paint9_linear" x1="135.999" y1="76.553" x2="125.759" y2="79.438" gradientUnits="userSpaceOnUse"><stop stop-color="#0B0E11"/><stop offset="1" stop-color="#2B2F36"/></linearGradient><linearGradient id="paint10_linear" x1="167.868" y1="71.082" x2="178.895" y2="60.055" gradientUnits="userSpaceOnUse"><stop stop-opacity=".65"/><stop offset="1" stop-opacity="0"/></linearGradient><linearGradient id="paint11_linear" x1="165.398" y1="90.85" x2="178.322" y2="77.926" gradientUnits="userSpaceOnUse"><stop/><stop offset="1" stop-opacity="0"/></linearGradient></defs></svg>