<svg xmlns="http://www.w3.org/2000/svg" fill="none" class="css-37ul6t" viewBox="0 0 96 96"><path fill="#AEB4BC" d="m16 33 4 4 4-4-4-4-4 4z" opacity=".3"/><path fill="#E6E8EA" d="M28 88h3v-3h-3v3z"/><path fill="#AEB4BC" d="m63.5 56 1.5-1.5-1.5-1.5-1.5 1.5 1.5 1.5zM8 16h60v4H8zm0 30h60v4H8zm0 30h80v4H8z" opacity=".3"/><path fill="url(#a)" d="M38 46h20v19H38V46z"/><path fill="url(#b)" d="M38 65h20v15H38z"/><path fill="url(#c)" d="M8 70h20v10H8z"/><path fill="url(#d)" d="M0 0h20v10H0z" transform="matrix(1 0 0 -1 8 70)"/><path fill="url(#e)" d="M68 16h20v27H68V16z"/><path fill="url(#f)" d="M68 43h20v37H68z"/><defs><linearGradient id="a" x1="48" x2="48" y1="65" y2="46" gradientUnits="userSpaceOnUse"><stop stop-color="#F0B90B"/><stop offset="1" stop-color="#F8D33A"/></linearGradient><linearGradient id="b" x1="48" x2="48" y1="65" y2="80" gradientUnits="userSpaceOnUse"><stop stop-color="#929AA5"/><stop offset="1" stop-color="#76808F"/></linearGradient><linearGradient id="c" x1="18" x2="18" y1="70" y2="80" gradientUnits="userSpaceOnUse"><stop stop-color="#929AA5"/><stop offset="1" stop-color="#76808F"/></linearGradient><linearGradient id="d" x1="10" x2="10" y1="0" y2="10" gradientUnits="userSpaceOnUse"><stop stop-color="#F0B90B"/><stop offset="1" stop-color="#F8D33A"/></linearGradient><linearGradient id="e" x1="78" x2="78" y1="43" y2="16" gradientUnits="userSpaceOnUse"><stop stop-color="#F0B90B"/><stop offset="1" stop-color="#F8D33A"/></linearGradient><linearGradient id="f" x1="78" x2="78" y1="43" y2="80" gradientUnits="userSpaceOnUse"><stop stop-color="#929AA5"/><stop offset="1" stop-color="#76808F"/></linearGradient></defs></svg>