<svg xmlns="http://www.w3.org/2000/svg" fill="none" class="css-37ul6t" viewBox="0 0 96 96"><path fill="#AEB4BC" d="m71 8 2-2 2 2-2 2-2-2zM4 78l3-3 3 3-3 3-3-3zm84-9.5 1.5-1.5 1.5 1.5-1.5 1.5-1.5-1.5zm-7-2.36V81H66.14l-6.35 11L48 85.193 36.21 92l-6.35-11H15V66.14L4 59.79 10.807 48 4 36.21l11-6.35V15h14.86l6.35-11L48 10.807 59.79 4l6.35 11H81v14.86l11 6.35L85.193 48 92 59.79l-11 6.35z" opacity=".3"/><path fill="url(#a)" d="M75 62.842V75H62.842l-5.196 9L48 78.43 38.354 84l-5.196-9H21V62.842l-9-5.196L17.57 48 12 38.354l9-5.196V21h12.158l5.196-9L48 17.57 57.646 12l5.196 9H75v12.158l9 5.196L78.43 48 84 57.646l-9 5.196z"/><path fill="url(#b)" d="m39.695 66.368 22.957-36.736h-6.347L33.348 66.368h6.347zm-4.02-16.526c5.607 0 8.675-3.053 8.675-10.42 0-7.37-3.068-10.422-8.675-10.422C30.068 29 27 32.053 27 39.421c0 7.368 3.068 10.421 8.675 10.421zm0-4.21c-1.64 0-2.38-1.053-2.38-3.158v-6.106c0-2.105.74-3.157 2.38-3.157s2.38 1.052 2.38 3.157v6.106c0 2.105-.74 3.158-2.38 3.158zM60.325 67C65.932 67 69 63.947 69 56.579c0-7.368-3.068-10.421-8.675-10.421-5.607 0-8.675 3.053-8.675 10.42 0 7.37 3.068 10.422 8.675 10.422zm0-4.21c-1.64 0-2.38-1.053-2.38-3.158v-6.106c0-2.105.74-3.158 2.38-3.158s2.38 1.053 2.38 3.158v6.106c0 2.105-.74 3.157-2.38 3.157z"/><defs><linearGradient id="a" x1="48" x2="48" y1="12" y2="84" gradientUnits="userSpaceOnUse"><stop stop-color="#929AA5"/><stop offset="1" stop-color="#76808F"/></linearGradient><linearGradient id="b" x1="48" x2="48" y1="67" y2="29" gradientUnits="userSpaceOnUse"><stop stop-color="#F0B90B"/><stop offset="1" stop-color="#F8D33A"/></linearGradient></defs></svg>