<svg xmlns="http://www.w3.org/2000/svg" fill="none" class="css-37ul6t" viewBox="0 0 96 96"><path fill="url(#a)" fill-rule="evenodd" d="m12.001 68.043 36 23.957V8h-36v60.043z" clip-rule="evenodd" opacity=".3"/><path fill="#AEB4BC" fill-rule="evenodd" d="M48.001 8v84l36-24V8h-36z" clip-rule="evenodd" opacity=".3"/><path fill="url(#b)" d="M74 64.667 48 82 22 64.667V18h52v46.667z"/><path fill="url(#c)" d="m34 46 14-14 14 14-14 14-14-14z"/><path fill="#AEB4BC" d="m14 88 4 4 4-4-4-4-4 4z" opacity=".3"/><path fill="#E6E8EA" d="M88 21h3v-3h-3v3z"/><path fill="#AEB4BC" d="M4 2.5 6.5 5 9 2.5 6.5 0 4 2.5z" opacity=".3"/><defs><linearGradient id="a" x1="48.001" x2="48.001" y1="92" y2="8" gradientUnits="userSpaceOnUse"><stop stop-color="#AEB4BC" stop-opacity=".1"/><stop offset=".701" stop-color="#AEB4BC"/></linearGradient><linearGradient id="b" x1="48" x2="48" y1="82" y2="18" gradientUnits="userSpaceOnUse"><stop offset=".333" stop-color="#F0B90B"/><stop offset="1" stop-color="#FBDA3C"/></linearGradient><linearGradient id="c" x1="48" x2="48" y1="32" y2="60" gradientUnits="userSpaceOnUse"><stop stop-color="#929AA5"/><stop offset="1" stop-color="#76808F"/></linearGradient></defs></svg>