<svg xmlns="http://www.w3.org/2000/svg" fill="none" class="css-37ul6t" viewBox="0 0 96 96"><path fill="url(#a)" d="M21.462 81.053C26.672 86.263 31.736 88 36.139 88l22.994-.011c8.296 0 15.021-6.725 15.021-15.022h-27.77l-9.04-9.136 1.9-1.899 5.828 5.828a8.714 8.714 0 0 0 12.324 0L42.636 53H21.462v28.052z"/><path fill="url(#b)" d="M8 53.001h13.461v35H8z"/><path fill="#AEB4BC" fill-rule="evenodd" d="m94.252 4.236-2.5-2.5-2.5 2.5 2.5 2.5 2.5-2.5zM15.963 18.001l4 4-4 4-4-4 4-4zm54.829 37.5 2.5-2.5 2.5 2.5-2.5 2.5-2.5-2.5z" clip-rule="evenodd" opacity=".3"/><path fill="url(#c)" d="M88.001 44.001h59.431v4H88.001z" transform="rotate(180 88 44.001)"/><path fill="url(#d)" fill-rule="evenodd" d="M28.57 36.001H88v-28H28.57v28zm36.492-4a12.066 12.066 0 0 0 5.302-10c0-4.16-2.103-7.828-5.303-10h13.94a5 5 0 0 0 5 5v10a5 5 0 0 0-5 5H65.06zm-13.553 0H37.57a5 5 0 0 0-5-5v-10a5 5 0 0 0 5-5h13.94a12.066 12.066 0 0 0-5.303 10c0 4.16 2.102 7.827 5.302 10z" clip-rule="evenodd"/><path fill="#AEB4BC" d="M70.363 22.001c0 4.16-2.102 7.827-5.302 10h13.94a5 5 0 0 1 5-5v-10a5 5 0 0 1-5-5H65.06a12.066 12.066 0 0 1 5.302 10zm-32.793 10h13.939a12.066 12.066 0 0 1-5.302-10c0-4.16 2.102-7.828 5.302-10H37.57a5 5 0 0 1-5 5v10a5 5 0 0 1 5 5z" opacity=".3"/><defs><linearGradient id="a" x1="45.563" x2="45.563" y1="53.001" y2="88.001" gradientUnits="userSpaceOnUse"><stop stop-color="#F8D33A"/><stop offset="1" stop-color="#F0B90B"/></linearGradient><linearGradient id="b" x1="21.462" x2="8" y1="62.878" y2="62.878" gradientUnits="userSpaceOnUse"><stop stop-color="#929AA5"/><stop offset="1" stop-color="#76808F"/></linearGradient><linearGradient id="c" x1="147.43" x2="88.001" y1="45.13" y2="45.13" gradientUnits="userSpaceOnUse"><stop stop-color="#929AA5"/><stop offset="1" stop-color="#76808F"/></linearGradient><linearGradient id="d" x1="28.571" x2="88.001" y1="28.099" y2="28.099" gradientUnits="userSpaceOnUse"><stop stop-color="#929AA5"/><stop offset="1" stop-color="#76808F"/></linearGradient></defs></svg>