<svg xmlns="http://www.w3.org/2000/svg" fill="none" class="css-37ul6t" viewBox="0 0 96 96"><circle r="20" fill="#F8D33A" transform="matrix(1 0 0 -1 48 48)"/><circle r="13.684" fill="url(#a)" transform="matrix(1 0 0 -1 48 48.002)"/><path fill="#F0B90B" d="M40.632 48 48 55.37 55.368 48 48 40.632 40.632 48z"/><path fill="#AEB4BC" d="M48 8c22.091 0 40 17.909 40 40S70.091 88 48 88v-8c17.673 0 32-14.327 32-32 0-17.673-14.327-32-32-32V8zm34 3 3 3 3-3-3-3-3 3zM39 76l2 2 2-2-2-2-2 2zM8 25h3v-3H8v3z" opacity=".3"/><path fill="url(#b)" d="M8 48C8 25.909 25.909 8 48 8v8c-17.673 0-32 14.327-32 32 0 8.838 3.577 16.832 9.373 22.627L31 65v17H14l5.716-5.716C12.48 69.05 8 59.044 8 48z"/><defs><linearGradient id="a" x1="13.684" x2="13.684" y1="0" y2="27.368" gradientUnits="userSpaceOnUse"><stop stop-color="#F0B90B"/><stop offset="1" stop-color="#F8D33A"/></linearGradient><linearGradient id="b" x1="28" x2="28" y1="8" y2="82" gradientUnits="userSpaceOnUse"><stop stop-color="#929AA5"/><stop offset="1" stop-color="#76808F"/></linearGradient></defs></svg>