<svg xmlns="http://www.w3.org/2000/svg" fill="none" class="css-37ul6t" viewBox="0 0 96 96"><path fill="#76808F" d="M67 49a9 9 0 1 1 0 18 9 9 0 0 1 0-18zM29 10a9 9 0 1 1 0 18 9 9 0 0 1 0-18z" opacity=".6"/><path fill="url(#a)" d="M57 70h3.842L67 76.094 73.158 70H77c4.418 0 8 3.544 8 7.917V85H49v-7.083C49 73.544 52.582 70 57 70z"/><path fill="url(#b)" d="M19 31h3.842L29 37.094 35.158 31H39c4.418 0 8 3.544 8 7.917V46H11v-7.083C11 34.544 14.582 31 19 31z"/><circle r="18" fill="#F8D33A" transform="matrix(1 0 0 -1 29 67)"/><circle r="12.667" fill="url(#c)" transform="matrix(1 0 0 -1 29 67)"/><path fill="#F0B90B" d="M22.52 67 29 73.48 35.48 67 29 60.52 22.52 67z"/><circle r="18" fill="#F8D33A" transform="matrix(1 0 0 -1 67 28)"/><circle r="12.667" fill="url(#d)" transform="matrix(1 0 0 -1 67 28)"/><path fill="#F0B90B" d="M60.52 28 67 34.48 73.48 28 67 21.52 60.52 28z"/><path fill="#76808F" d="m86 67 2-2 2 2-2 2-2-2zM42 13l3-3 3 3-3 3-3-3zM4 53l2-2 2 2-2 2-2-2z" opacity=".3"/><defs><linearGradient id="a" x1="67" x2="67" y1="70" y2="85" gradientUnits="userSpaceOnUse"><stop stop-color="#929AA5"/><stop offset="1" stop-color="#76808F"/></linearGradient><linearGradient id="b" x1="29" x2="29" y1="31" y2="46" gradientUnits="userSpaceOnUse"><stop stop-color="#929AA5"/><stop offset="1" stop-color="#76808F"/></linearGradient><linearGradient id="c" x1="12.667" x2="12.667" y1="0" y2="25.333" gradientUnits="userSpaceOnUse"><stop stop-color="#F0B90B"/><stop offset="1" stop-color="#F8D33A"/></linearGradient><linearGradient id="d" x1="12.667" x2="12.667" y1="0" y2="25.333" gradientUnits="userSpaceOnUse"><stop stop-color="#F0B90B"/><stop offset="1" stop-color="#F8D33A"/></linearGradient></defs></svg>