<svg xmlns="http://www.w3.org/2000/svg" fill="none" class="css-37ul6t" viewBox="0 0 96 96"><path fill="#AEB4BC" fill-rule="evenodd" d="M84 84.001H12v-42h72v42zm-19-8.5 1.5-1.5 1.5 1.5-1.5 1.5-1.5-1.5z" clip-rule="evenodd" opacity=".3"/><path fill="#76808F" d="m80 30.001 2-2 2 2-2 2-2-2z" opacity=".6"/><circle r="19.245" fill="#F8D33A" transform="matrix(1 0 0 -1 48 27.245)"/><circle r="13.936" fill="url(#a)" transform="matrix(1 0 0 -1 48 27.244)"/><path fill="#F0B90B" d="m40.7 27.245 7.3 7.3 7.3-7.3-7.3-7.3-7.3 7.3z"/><circle r="10" fill="#F8D33A" transform="matrix(1 0 0 -1 77.875 64)"/><circle r="7.273" fill="url(#b)" transform="matrix(1 0 0 -1 77.875 64)"/><path fill="#F0B90B" d="m74.239 64 3.636 3.636L81.51 64l-3.636-3.636L74.239 64z"/><circle r="12" fill="#F8D33A" transform="matrix(1 0 0 -1 28 76)"/><circle r="8.727" fill="url(#c)" transform="matrix(1 0 0 -1 28 76)"/><path fill="#F0B90B" d="M23.636 76 28 80.364 32.364 76 28 71.636 23.636 76z"/><path fill="#76808F" d="m17 10.001-3 3 3 3 3-3-3-3z" opacity=".6"/><path fill="#76808F" d="M27.21 49.968h41.581l-20.79 20.79-20.791-20.79z"/><defs><linearGradient id="a" x1="13.936" x2="13.936" y1="0" y2="27.872" gradientUnits="userSpaceOnUse"><stop stop-color="#F0B90B"/><stop offset="1" stop-color="#F8D33A"/></linearGradient><linearGradient id="b" x1="7.273" x2="7.273" y1="0" y2="14.546" gradientUnits="userSpaceOnUse"><stop stop-color="#F0B90B"/><stop offset="1" stop-color="#F8D33A"/></linearGradient><linearGradient id="c" x1="8.727" x2="8.727" y1="0" y2="17.454" gradientUnits="userSpaceOnUse"><stop stop-color="#F0B90B"/><stop offset="1" stop-color="#F8D33A"/></linearGradient></defs></svg>