<svg xmlns="http://www.w3.org/2000/svg" fill="none" class="css-37ul6t" viewBox="0 0 96 96"><path fill="#AEB4BC" d="m76 10 4 4 4-4-4-4-4 4zM3 43l3 3 3-3-3-3-3 3zm85 16 3 3 3-3-3-3-3 3z" opacity=".3"/><path fill="url(#a)" fill-rule="evenodd" d="M60 8H24v72h56V28L60 8z" clip-rule="evenodd"/><path fill="url(#b)" d="M80 28H60V8l20 20z"/><path fill="#fff" d="M34 24h17v4H34v-4z"/><path fill="url(#c)" d="M70 36h-4v4h4v-4z"/><path fill="url(#d)" d="M34 36h28v4H34v-4z"/><path fill="url(#e)" d="M34 45h28v4H34v-4z"/><path fill="url(#f)" d="M34 54h28v4H34v-4z"/><path fill="url(#g)" d="M34 63h28v4H34v-4z"/><path fill="url(#h)" d="M66 45h4v4h-4v-4z"/><path fill="url(#i)" d="M70 54h-4v4h4v-4z"/><path fill="url(#j)" d="M66 63h4v4h-4v-4z"/><path fill="#AEB4BC" d="M16 88V16h8v64h48v8H16z" opacity=".3"/><defs><linearGradient id="a" x1="52" x2="52" y1="80" y2="8" gradientUnits="userSpaceOnUse"><stop stop-color="#F0B90B"/><stop offset="1" stop-color="#F8D33A"/></linearGradient><linearGradient id="b" x1="70" x2="70" y1="8" y2="28" gradientUnits="userSpaceOnUse"><stop stop-color="#929AA5"/><stop offset="1" stop-color="#76808F"/></linearGradient><linearGradient id="c" x1="52" x2="52" y1="36" y2="67" gradientUnits="userSpaceOnUse"><stop stop-color="#929AA5"/><stop offset="1" stop-color="#76808F"/></linearGradient><linearGradient id="d" x1="52" x2="52" y1="36" y2="67" gradientUnits="userSpaceOnUse"><stop stop-color="#929AA5"/><stop offset="1" stop-color="#76808F"/></linearGradient><linearGradient id="e" x1="52" x2="52" y1="36" y2="67" gradientUnits="userSpaceOnUse"><stop stop-color="#929AA5"/><stop offset="1" stop-color="#76808F"/></linearGradient><linearGradient id="f" x1="52" x2="52" y1="36" y2="67" gradientUnits="userSpaceOnUse"><stop stop-color="#929AA5"/><stop offset="1" stop-color="#76808F"/></linearGradient><linearGradient id="g" x1="52" x2="52" y1="36" y2="67" gradientUnits="userSpaceOnUse"><stop stop-color="#929AA5"/><stop offset="1" stop-color="#76808F"/></linearGradient><linearGradient id="h" x1="52" x2="52" y1="36" y2="67" gradientUnits="userSpaceOnUse"><stop stop-color="#929AA5"/><stop offset="1" stop-color="#76808F"/></linearGradient><linearGradient id="i" x1="52" x2="52" y1="36" y2="67" gradientUnits="userSpaceOnUse"><stop stop-color="#929AA5"/><stop offset="1" stop-color="#76808F"/></linearGradient><linearGradient id="j" x1="52" x2="52" y1="36" y2="67" gradientUnits="userSpaceOnUse"><stop stop-color="#929AA5"/><stop offset="1" stop-color="#76808F"/></linearGradient></defs></svg>